<svg id="visual" viewBox="0 0 900 600" width="900" height="600" xmlns="http://www.w3.org/2000/svg" xmlns:xlink="http://www.w3.org/1999/xlink" version="1.1"><path d="M0 450L30 445.8C60 441.7 120 433.3 180 433.5C240 433.7 300 442.3 360 440.3C420 438.3 480 425.7 540 416.2C600 406.7 660 400.3 720 400.2C780 400 840 406 870 409L900 412L900 601L870 601C840 601 780 601 720 601C660 601 600 601 540 601C480 601 420 601 360 601C300 601 240 601 180 601C120 601 60 601 30 601L0 601Z" fill="#4FACF7" stroke-linecap="round" stroke-linejoin="miter"></path></svg>